<?xml version="1.0" encoding="UTF-8" standalone="no"?>
<!-- Created with Inkscape (http://www.inkscape.org/) -->

<svg
   width="1609.6188mm"
   height="1112.822mm"
   viewBox="0 0 1609.6188 1112.822"
   version="1.1"
   id="svg1"
   xml:space="preserve"
   xmlns="http://www.w3.org/2000/svg"
   xmlns:svg="http://www.w3.org/2000/svg"><defs
     id="defs1" /><g
     id="layer1"
     transform="translate(-10220.804,-3276.4191)"
     style="display:inline"><g
       id="g37"
       transform="translate(-372.53333,-19.740261)"
       style="fill:#ffffff"><path
         style="display:inline;fill:#ffffff;stroke-width:0;stroke-linecap:round;stroke-linejoin:round;paint-order:stroke fill markers"
         d="m 11229.204,3385.709 c -14.837,0 -29.597,0.7366 -44.232,2.1895 -14.635,1.453 -29.144,3.6221 -43.48,6.4875 -14.336,2.8654 -28.498,6.427 -42.437,10.6645 -13.936,4.2367 -27.65,9.1496 -41.093,14.7174 0,0 -0.01,0 -0.02,0.01 -13.442,5.5682 -26.612,11.7917 -39.462,18.6505 -12.847,6.8574 -25.374,14.3501 -37.532,22.4571 -0.01,0.01 -0.02,0.013 -0.03,0.02 -12.154,8.1051 -23.938,16.8245 -35.306,26.138 -0.01,0.01 -0.02,0.013 -0.02,0.02 -11.371,9.3182 -22.325,19.2309 -32.812,29.7181 -10.596,10.5956 -20.603,21.6684 -30.002,33.1675 -9.398,11.4991 -18.189,23.4243 -26.351,35.7254 -8.163,12.3011 -15.698,24.978 -22.585,37.9796 -6.886,13.0017 -13.125,26.3282 -18.697,39.9289 a 36.648399,36.648399 0 0 1 8.345,-1.9756 36.648399,36.648399 0 0 1 7.684,0.865 36.648399,36.648399 0 0 1 2.402,0.7287 36.648399,36.648399 0 0 1 4.933,1.7255 36.648399,36.648399 0 0 1 2.62,1.4004 36.648399,36.648399 0 0 1 4.052,2.5456 36.648399,36.648399 0 0 1 2.406,1.9745 36.648399,36.648399 0 0 1 3.312,3.3109 36.648399,36.648399 0 0 1 1.977,2.4087 36.648399,36.648399 0 0 1 2.542,4.0457 36.648399,36.648399 0 0 1 1.404,2.6267 36.648399,36.648399 0 0 1 1.721,4.917 36.648399,36.648399 0 0 1 0.734,2.419 36.648399,36.648399 0 0 1 0.865,7.6807 36.648399,36.648399 0 0 1 -5.125,18.5446 30.50676,30.50676 0 0 1 8.6,-1.2377 30.50676,30.50676 0 0 1 19.061,7.8952 30.50676,30.50676 0 0 1 3.55,3.5496 30.50676,30.50676 0 0 1 7.896,19.0619 30.50676,30.50676 0 0 1 -0.01,0.083 30.50676,30.50676 0 0 1 15.229,-4.1527 30.50676,30.50676 0 0 1 19.058,7.8941 30.50676,30.50676 0 0 1 3.55,3.5497 30.50676,30.50676 0 0 1 7.896,19.0619 h 20.028 a 15.25338,15.25338 0 0 1 10.333,4.2788 15.25338,15.25338 0 0 1 0.642,0.6423 15.25338,15.25338 0 0 1 4.28,10.3312 15.25338,15.25338 0 0 1 0,5e-4 15.25338,15.25338 0 0 1 0,5e-4 15.25338,15.25338 0 0 1 -4.468,10.7859 15.25338,15.25338 0 0 1 -10.787,4.4674 h -50.536 -126.486 c -0.678,10.0244 -1.145,20.0807 -1.145,30.1915 0,13.7797 0.644,27.4906 1.911,41.0946 0.177,1.9008 0.588,3.7559 0.79,5.6524 2.343,22.072 6.424,43.8023 11.962,65.1216 0.797,3.0699 1.309,6.2197 2.171,9.2702 3.679,13.0276 7.942,25.8736 12.766,38.5005 0,2e-4 0,4e-4 0,5e-4 -2.189,-0.1814 -4.361,-0.51 -6.564,-0.51 -8.455,0 -16.833,1.2441 -24.822,3.7656 -2.969,0.9175 -5.813,2.1977 -8.57,3.6804 2.792,-1.4013 5.614,-2.7578 8.57,-3.6711 7.989,-2.5215 16.367,-3.7656 24.822,-3.7656 8.258,0 16.464,1.2725 24.267,3.8318 8.693,2.7915 16.98,7.7648 23.248,14.7639 0.83,0.927 1.417,2.0257 2.143,3.0304 0,-0.01 0,-0.012 -0.01,-0.018 0,-6e-4 0,0 0,0 0,-10e-5 0,-4e-4 0,-5e-4 l 25.885,-6.936 c 0,-5e-4 0,-1e-4 0.01,-5e-4 3.375,-0.9035 6.773,-1.0805 10.029,-0.6279 6.52,0.9064 12.468,4.3389 16.514,9.5312 0,6e-4 0,0 0,0 2.021,2.5944 3.568,5.6277 4.473,9.0041 0,6e-4 0,9e-4 0,0 0,2e-4 0,4e-4 0,5e-4 l 14.279,53.2945 v 5e-4 c 0.398,1.4838 1.037,2.846 1.864,4.0571 0,10e-5 0,4e-4 0,5e-4 0.827,1.2111 1.843,2.2711 2.995,3.1512 2.303,1.7605 5.15,2.8006 8.119,2.8877 26.614,-5.8258 54.212,-10.5891 82.527,-14.2523 2.333,-0.9566 4.141,-2.644 5.194,-4.7512 0.526,-1.0534 0.864,-2.212 0.984,-3.4365 0,-10e-5 0,-3e-4 0,-5e-4 0.12,-1.2245 0.02,-2.515 -0.322,-3.8328 v -5e-4 l -17.487,-67.0192 c 0,-2e-4 0,-3e-4 0,-5e-4 -0.806,-3.0915 -0.828,-6.1648 -0.207,-9.0362 0,-7e-4 0,0 0,0 0.621,-2.8701 1.884,-5.5383 3.646,-7.8202 0,-5e-4 0,0 0,0 0,-10e-5 0,-4e-4 0,-5e-4 0,-9e-4 0,0 0,0 1.764,-2.2816 4.027,-4.1774 6.647,-5.5026 2.621,-1.3251 5.599,-2.0792 8.792,-2.0799 0,0 0,0 0,0 l 30.372,-7.5675 -97.616,-383.6954 a 13.099547,13.357656 1.6055956e-6 0 1 0,-5e-4 13.099547,13.357656 1.6055956e-6 0 1 0.942,-9.2847 13.099547,13.357656 1.6055956e-6 0 1 6.675,-6.3893 l 48.826,-20.8613 a 10.756292,10.968231 1.6055956e-6 0 1 9.413,0.5468 10.756292,10.968231 1.6055956e-6 0 1 5.375,7.8977 10.756292,10.968231 1.6055956e-6 0 1 0,5e-4 l 1.777,11.7517 c 72.798,-31.3144 142.227,-62.2498 214.507,-93.2129 v 0 c 4.311,-1.8469 8.596,-2.6524 12.654,-2.529 v 5e-4 0 c 3.043,0.093 5.958,0.7078 8.659,1.7978 8.106,3.2703 14.29,10.8164 16.25,21.3584 12.853,69.1612 25.686,138.3277 38.489,207.4984 0.946,4.8187 4.246,8.5696 8.404,9.74 1.386,0.3902 2.867,0.4935 4.389,0.2543 l 12.351,-1.942 0.439,-0.069 6.96,-1.0945 c 6.086,-0.9569 9.942,-6.945 9.247,-13.4591 -7,-59.3387 -13.944,-118.6864 -20.883,-178.0331 -2.279,-19.4868 5.747,-34.2862 18.956,-37.9651 4.403,-1.2262 9.381,-1.2172 14.746,0.2656 0,1e-4 0,-10e-5 0,0 0.903,0.2495 1.771,0.8804 2.45,1.6842 0.679,0.8044 1.168,1.782 1.311,2.7254 l 0.05,0.3581 a 6.0866279,6.206557 1.6055956e-6 0 1 -4.918,7.0507 v 0 l -1.114,0.2088 c -5.962,1.5734 -9.042,7.6936 -7.712,14.1041 17.124,78.2327 34.634,156.3881 51.113,234.7655 2.743,13.048 -5.606,24.8509 -18.617,26.2583 0,1e-4 0,0 0,0 -50.126,5.4221 -100.348,9.861 -150.535,14.687 -2.636,0.2535 -5.247,-0.042 -7.711,-0.7922 -2.464,-0.7506 -4.781,-1.9572 -6.831,-3.5269 -4.098,-3.1398 -7.124,-7.7328 -8.107,-13.0395 l -24.339,-131.5052 c -0.158,-0.8031 -0.381,-1.5769 -0.663,-2.3136 -0.563,-1.4736 -1.36,-2.8001 -2.335,-3.9243 -0.976,-1.1242 -2.13,-2.0459 -3.406,-2.7088 -0.639,-0.3314 -1.308,-0.5982 -2.001,-0.7933 -0.693,-0.1951 -1.41,-0.3177 -2.143,-0.3627 -0.734,-0.045 -1.484,-0.011 -2.244,0.1085 l -6.961,1.0945 -0.438,0.069 -12.843,2.0195 c -0.761,0.1196 -1.487,0.318 -2.174,0.586 -0.686,0.2681 -1.333,0.6057 -1.936,1.0046 -0.603,0.3989 -1.163,0.8589 -1.673,1.371 -2.555,2.5606 -3.898,6.4262 -3.464,10.4976 l 14.908,126.6894 c 1.478,12.5543 -7.333,23.6886 -19.682,24.8336 -29.697,2.7536 -57.819,5.2311 -88.113,8 l 24.142,159.6601 32.25,-8.0362 c 7.585,-1.8898 15.312,-3.159 23.103,-3.7946 3.901,-0.3183 7.809,-0.4768 11.714,-0.4765 v -5e-4 l -0.01,-5e-4 h 0.01 v 5e-4 c 11.711,0 23.395,1.4318 34.788,4.2705 v 5e-4 l 97.2,24.2187 c 0,0 0,0 0,0 3.194,5e-4 6.172,0.7548 8.793,2.0799 0,10e-5 0,0 0,0 7.865,3.9771 12.509,13.0907 10.089,22.3656 l -17.486,67.0197 c -0.688,2.6361 -0.391,5.1631 0.662,7.2703 0,6e-4 0,0 0,0 1.052,2.1057 2.858,3.7923 5.19,4.7485 0,1e-4 0,4e-4 0,5e-4 0,1e-4 0,0 0,0 28.315,3.6632 55.914,8.4266 82.527,14.2524 5.939,-0.1742 11.387,-4.1611 12.978,-10.0971 l 14.279,-53.2949 c 0,-0.01 0.01,-0.01 0.01,-0.015 0.905,-3.3676 2.447,-6.3937 4.463,-8.9829 4.046,-5.1972 9.996,-8.6342 16.52,-9.541 3.256,-0.4528 6.654,-0.2754 10.03,0.6284 0,2e-4 0,-3e-4 0,0 0,10e-5 0,3e-4 0,5e-4 l 114.411,30.6482 v 6e-4 a 23.156317,23.156317 0 0 1 0,5e-4 23.156317,23.156317 0 0 1 6.283,2.8324 23.156317,23.156317 0 0 1 1.72,1.3513 23.156317,23.156317 0 0 1 3.471,3.2112 23.156317,23.156317 0 0 1 1.502,2.0345 23.156317,23.156317 0 0 1 2.146,3.9207 23.156317,23.156317 0 0 1 0.905,2.3569 23.156317,23.156317 0 0 1 0.838,4.6643 23.156317,23.156317 0 0 1 0.211,2.1653 23.156317,23.156317 0 0 1 -0.998,6.8264 l -18.454,58.2213 c 0,0 -0.01,0.01 -0.01,0.01 5.435,-4.3432 11.405,-5.8557 16.339,-6.6513 1.761,-0.311 3.628,-0.4226 5.44,-0.6113 -0.05,0.01 -0.114,0 -0.164,0.01 31.921,-38.644 56.956,-82.1294 74.298,-128.5683 2.89,-7.7398 5.566,-15.5613 8.025,-23.4565 2.46,-7.8951 4.701,-15.8637 6.722,-23.8967 h -226.868 a 15.25338,15.25338 0 0 1 -15.253,-15.2539 15.25338,15.25338 0 0 1 4.467,-10.7854 15.25338,15.25338 0 0 1 10.786,-4.4679 h 39.811 a 30.50676,30.50676 0 0 1 7.895,-19.0619 30.50676,30.50676 0 0 1 3.551,-3.5496 30.50676,30.50676 0 0 1 19.061,-7.8952 30.50676,30.50676 0 0 1 17.351,5.4245 64.763177,64.763177 0 0 1 -2.46,-17.4863 64.763177,64.763177 0 0 1 7.787,-29.0592 64.763177,64.763177 0 0 1 4.898,-7.3303 64.763177,64.763177 0 0 1 15.689,-15.6889 64.763177,64.763177 0 0 1 7.332,-4.899 64.763177,64.763177 0 0 1 29.059,-7.7855 64.763177,64.763177 0 0 1 28.443,7.6166 64.763177,64.763177 0 0 1 6.314,3.623 64.763177,64.763177 0 0 1 20.927,20.714 64.763177,64.763177 0 0 1 14.547,-17.0496 64.763177,64.763177 0 0 1 19.487,-11.0712 c -4.618,-82.1428 -31.737,-161.059 -77.906,-228.2817 -7.695,-11.2037 -15.919,-22.0825 -24.657,-32.5975 -8.737,-10.5149 -17.988,-20.6659 -27.735,-30.4136 -10.488,-10.4872 -21.441,-20.3999 -32.813,-29.7181 -0.01,-0.01 -0.02,-0.013 -0.02,-0.02 -11.367,-9.3135 -23.152,-18.0329 -35.305,-26.138 -0.01,-0.01 -0.02,-0.013 -0.03,-0.02 -12.159,-8.107 -24.685,-15.5997 -37.533,-22.4571 -12.853,-6.8601 -26.026,-13.0851 -39.47,-18.6541 -13.445,-5.5691 -27.162,-10.4826 -41.101,-14.72 -13.939,-4.2375 -28.101,-7.7991 -42.436,-10.6645 -14.336,-2.8654 -28.845,-5.0345 -43.48,-6.4875 -14.635,-1.4529 -29.395,-2.1895 -44.232,-2.1895 z"
         id="path80" /><path
         id="path81"
         style="color:#000000;-inkscape-font-specification:'Denk One';display:inline;fill:#ffffff;stroke-linecap:round;stroke-linejoin:round;-inkscape-stroke:none;paint-order:stroke fill markers"
         d="m 10689.55,3946.1225 c -4.773,0 -8.572,0.065 -13.389,1.0118 -4.89,0.8474 -12.487,2.4475 -18.444,11.7182 -2.461,3.7673 -3.53,7.1967 -4.029,10.2738 -4.58,-1.0421 -9.282,-1.1226 -13.955,-1.1292 -4.769,0 -8.568,0.066 -13.381,1.0103 -4.89,0.8471 -12.492,2.447 -18.451,11.7208 -4.126,6.316 -4.5,11.8128 -4.5,15.9954 0.05,3.121 0.115,6.2426 0.172,9.3637 -14.558,4.5828 -10.321,33.1253 -6.937,39.146 9.51,7.7514 8.246,14.0554 8.246,14.0554 0.411,17.4577 0.859,34.9149 1.263,52.3725 0.08,2.807 1.109,6.7611 2.903,10.711 -9.224,7.394 -11.736,19.3127 -11.582,27.312 2.11,75.2113 4.207,150.4249 6.309,225.6369 0,0.1159 0.01,0.2315 0.01,0.3473 0.173,3.9949 0.674,8.2393 2.766,13.2074 2.091,4.9681 6.599,11.0013 13.159,14.2813 0.118,0.059 0.237,0.1163 0.356,0.1732 6.216,2.9729 9.403,4.6732 13.291,5.055 4.758,0.155 9.523,0.2263 14.292,0.2691 9.243,0.083 22.418,-4.7659 29.472,-10.7407 2.482,-2.1021 4.848,-4.1014 6.718,-5.6803 2.181,-1.8408 6.263,-3.3312 9.117,-3.3312 3.985,0 10.248,2.3407 13.931,5.302 1.149,0.9234 2.384,1.9255 3.656,2.971 7.622,6.2656 21.343,11.8405 31.215,11.806 9.275,-0.032 22.552,-5.0723 29.365,-11.5997 4.854,-4.6495 14.276,-8.4788 21.117,-8.4788 h 0 c 14.066,0 27.834,9.8915 43.205,15.2462 3.747,1.3052 10.09,2.3909 14.034,2.8454 l 11.303,1.3026 a 99.325753,99.325753 3.2869405 0 0 11.371,0.6531 h 1.289 a 73.377384,73.377384 176.71306 0 0 8.4,-0.4825 l 11.189,-1.2893 c 4.825,-0.5561 12.588,-1.8909 17.141,-3.5722 14.765,-5.452 28.09,-14.7033 41.693,-14.7033 6.841,0 17.791,4.0543 24.242,9.324 0.02,0.02 0.05,0.041 0.08,0.061 6.87,5.6152 19.215,10.6622 28.092,10.6622 h 26.426 c 9.508,0 23.195,-4.869 30.414,-11.0575 2.49,-2.1351 4.72,-4.0686 6.465,-5.5904 2.144,-1.8695 6.179,-3.3963 9.024,-3.3963 l 2.084,0 c 2.845,0 6.981,1.4056 9.214,3.1686 0.449,0.3542 0.925,0.7315 1.424,1.1283 10.383,8.26 28.901,15.7504 42.178,15.7504 h 100.649 c 13.485,0 32.707,-7.1263 42.993,-15.8471 2.738,-2.3211 8.076,-4.2002 11.922,-4.2002 2.996,0 8.429,2.3073 12.078,5.2283 1.151,0.922 2.391,1.924 3.668,2.9699 7.611,6.2354 21.285,11.8491 31.13,11.8491 h 70.601 c 12.353,0 29.959,-6.5296 39.379,-14.5207 3.601,-3.0546 10.41,-5.5266 15.206,-5.5266 2.046,0 6.335,2.0205 9.534,4.5706 2.649,2.1112 5.878,4.7313 8.976,7.3667 5.041,4.2872 14.187,8.11 20.807,8.11 h 10.148 c 4.735,0 11.456,-2.5347 14.927,-5.7553 3.924,-3.642 8.262,-7.7689 11.271,-10.6484 2.099,-2.0083 6.149,-3.6436 9.054,-3.6436 3.936,0 10.716,2.7525 15.058,6.2552 8.981,7.2455 27.119,13.7921 41.212,13.7921 h 64.701 c 14.39,0 34.903,-7.6029 45.881,-16.9062 0,-0 0,-0.01 0.01,-0.01 2.042,-1.7308 5.869,-3.1325 8.546,-3.1325 h 1.822 c 3.158,0 7.749,1.5602 10.226,3.5202 1.889,1.4945 4.204,3.3492 6.61,5.3314 7.155,5.8954 20.028,11.1957 29.305,11.1957 h 52.186 c 9.368,0 22.507,-5.2123 28.648,-12.2785 0.512,-0.5893 1.008,-1.1646 1.483,-1.7185 2.839,-3.3107 8.61,-6.0503 12.971,-6.0503 2.48,0 6.394,2.1132 8.749,4.7131 1.937,2.1367 4.332,4.7726 6.747,7.412 4.024,4.3968 12.16,7.9222 18.12,7.9222 h 10.163 c 9.306,0 22.36,-5.1764 28.462,-12.1938 0.538,-0.6185 1.059,-1.2222 1.556,-1.8024 2.839,-3.3112 8.611,-6.0511 12.973,-6.0511 2.48,0 6.223,1.3316 8.34,3.0007 1.94,1.5304 4.434,3.5212 7.049,5.6715 7.28,5.9888 20.372,11.3751 29.805,11.3751 h 0.223 c 9.514,0 23.07,-5.033 30.319,-11.1934 2.334,-1.9834 4.553,-3.8653 6.34,-5.38 2.265,-1.9195 6.509,-3.4739 9.478,-3.4739 h 1.925 c 2.809,0 6.892,1.3876 9.097,3.1277 1.53,1.2076 3.386,2.6877 5.366,4.2996 8.152,6.6364 22.775,12.6203 33.293,12.6189 11.971,-0 19.662,-0 24.375,-0.01 2.377,-0 3.47,0.1164 12.977,-0.8249 10.784,-1.0678 20.653,-3.2975 29.736,-7.1508 12.675,-5.3777 23.869,-13.5758 31.265,-24.9432 6.757,-10.2472 10.562,-22.3739 10.99,-34.6542 v -0.014 l 0.293,-8.1896 -0.02,0.3679 c 0.563,-10.7857 0.155,-20.3241 -2.324,-29.5729 -2.773,-11.0437 -9.13,-20.7252 -18.015,-27.7518 8.119,-2.4615 14.301,-8.6969 18.179,-16.0941 2.742,-5.8629 3.422,-11.3332 3.506,-16.445 l 1.461,-58.3649 v -0.016 c 0.54,-20.458 -8.562,-40.7007 -24.379,-53.604 -17.622,-14.376 -40.93,-18.6872 -69.002,-18.6872 -27.985,0 -51.279,4.354 -68.928,18.6273 -0.02,0.02 -0.05,0.039 -0.07,0.059 -7.265,5.9266 -13.031,13.4459 -17.179,21.779 -2.033,-3.9023 -4.476,-7.5854 -7.438,-10.898 -9.276,-10.56 -21.785,-17.8302 -35.634,-21.9982 -13.231,-4.0767 -27.52,-5.9572 -42.721,-5.9572 h -33.399 -3.662 c -8.308,0 -14.809,0.2509 -21.14,1.3436 -5.421,0.8504 -12.066,2.4668 -17.975,7.893 -3.93,-4.0838 -8.589,-6.3575 -12.011,-7.4062 -4.947,-1.5159 -8.809,-1.6837 -12.741,-1.6837 h -16.26 -22.851 c -8.079,-0.096 -15.705,-0.1467 -22.852,-0.1467 h -16.113 c -8.257,0 -15.269,-0.9668 -25.756,6.2208 -12.032,8.0501 -13.298,20.499 -13.137,28.8592 v 0.1974 l 0.07,2.5823 c -4.129,-7.6443 -9.625,-14.4654 -16.563,-19.8226 -18.013,-13.9873 -41.524,-18.0371 -70.306,-18.0371 h -43.213 c -8.206,0 -14.601,0.2412 -20.912,1.3555 -6.855,-1.3554 -13.3,-1.355 -21.124,12.4028 0,0 -1.357,1.4675 -2.493,3.0505 -0.484,-0.8522 -0.837,-1.6861 -1.44,-2.5528 -6.613,-9.675 -15.417,-11.8264 -22.105,-12.883 -6.368,-1.1512 -12.705,-1.373 -20.989,-1.373 -11.436,0 -17.834,-1.7109 -30.367,4.932 -6.165,3.2338 -11.229,9.3507 -13.525,15.0487 -0.923,2.2893 -1.648,4.1655 -2.215,5.688 -1.175,3.1502 -2.871,3.2003 -4.008,0.035 l -2.754,-7.6667 c -2.584,-8.8883 -20.629,-16.0212 -20.629,-16.0212 -7.286,-1.956 -13.209,-2.0159 -21.277,-2.0159 -5.699,0 -10.593,0.1882 -15.23,0.7503 -4.552,0.5517 -8.632,0.7359 -15.229,4.5625 -12.2,6.9232 -15.342,20.8132 -15.17,29.7693 v 0.1953 l -17.032,-4.1816 0.06,0.34 c -0.997,-6.3185 -3.058,-13.2887 -8.699,-19.6722 -7.936,-9.1565 -16.359,-10.3887 -23.787,-11.4081 -7.119,-0.9771 -15.37,-1.234 -26.496,-1.234 -11.126,0 -19.447,0.2655 -26.584,1.2263 -0.02,0 -0.04,0.01 -0.06,0.01 -4.353,0.5974 -9.048,1.2674 -13.786,3.5626 -6.325,3.0637 -11.592,13.3711 -13.542,20.1744 l -19.776,68.9948 c -1.177,4.1053 -4.948,6.9216 -9.218,6.8843 l -3.926,-0.034 c -3.991,-0.035 -7.3,-3.2984 -7.495,-7.2848 -0.838,-17.1275 -4.17,-60.1717 -16.861,-78.8965 -6.725,-9.4516 -15.37,-11.3966 -21.974,-12.4065 -6.335,-1.1157 -12.748,-1.3534 -21.03,-1.3534 -8.308,0 -14.809,0.2509 -21.14,1.3436 -3.895,0.611 -8.403,1.779 -12.844,4.2933 -2.847,-1.9678 -5.747,-3.2448 -8.059,-3.9532 -4.946,-1.5159 -8.81,-1.6837 -12.742,-1.6837 H 10968 c -3.908,0 -7.786,0.1877 -12.668,1.6837 -4.881,1.4959 -12.085,5.0797 -16.315,13.1154 -0.147,0.2789 -0.288,0.5607 -0.423,0.8455 -0.06,0.1207 -0.07,0.1957 -0.123,0.3147 -17.41,-13.3999 -40.107,-17.5705 -67.297,-17.5705 -5.065,0 -9.919,0.2053 -14.67,0.5234 2.785,-6.0816 4.221,-12.6425 4.221,-18.697 0.257,-18.5415 1.183,-37.0765 1.941,-55.6038 0.491,-10.5038 -2.818,-22.4394 -10.412,-30.9196 -6.268,-6.9991 -14.556,-11.9725 -23.248,-14.764 -7.804,-2.5589 -16.01,-3.8318 -24.268,-3.8318 -8.454,0 -16.832,1.2442 -24.822,3.7657 -7.491,2.315 -14.613,6.2347 -20.588,11.574 -0.282,-0.3161 -0.523,-0.6606 -0.816,-0.969 -8.305,-8.7877 -20.921,-14.0742 -32.91,-14.2906 l 0.269,-14.1562 c 0.156,-4.5213 -0.333,-10.8616 -4.938,-17.3948 -5.847,-8.6194 -13.11,-10.241 -17.883,-11.0722 -4.952,-1.0005 -8.685,-1.0351 -13.5,-1.0351 z m 417.914,462.826 h -59.547 v 5e-4 h 59.548 z m -417.914,-440.3349 c 4.159,0 7.206,0.1992 9.143,0.5979 1.994,0.3419 3.276,0.9686 3.845,1.88 0.627,0.8545 0.912,2.108 0.855,3.76 l -0.94,48.6203 c 3.019,-3.3041 6.295,-6.0102 9.826,-8.1179 3.532,-2.1077 7.719,-3.1615 12.561,-3.1615 6.95,0 12.732,2.4498 17.347,7.3489 4.671,4.8991 6.864,11.678 6.579,20.3367 l -2.05,71.1791 c -0.06,2.1077 -0.741,3.447 -2.051,4.0163 -1.311,0.5697 -4.358,0.8542 -9.144,0.8542 -4.785,0 -7.832,-0.2845 -9.143,-0.8542 -1.253,-0.5693 -1.908,-1.9086 -1.965,-4.0163 l -1.965,-68.7007 c -0.114,-4.5003 -1.083,-7.5197 -2.905,-9.0578 -1.766,-1.5381 -4.045,-2.3074 -6.836,-2.3074 -2.279,0 -4.301,0.7122 -6.067,2.1363 -1.766,1.3672 -3.247,2.9624 -4.444,4.7853 l -1.452,73.1443 c -0.06,2.1077 -0.741,3.447 -2.051,4.0163 -1.31,0.5697 -4.358,0.8542 -9.143,0.8542 -4.785,0 -7.833,-0.2845 -9.143,-0.8542 -1.253,-0.5693 -1.908,-1.9086 -1.965,-4.0163 l -2.735,-136.2056 c 0,-1.652 0.285,-2.9055 0.855,-3.76 0.569,-0.9114 1.851,-1.5381 3.845,-1.88 1.994,-0.3987 5.041,-0.5979 9.143,-0.5979 z m -49.817,21.8747 c 4.158,0 7.206,0.1996 9.143,0.5984 1.994,0.3417 3.276,0.9685 3.845,1.88 0.627,0.8545 0.912,2.1074 0.855,3.7594 l -0.513,23.8404 h 4.358 c 3.019,0 4.785,0.4842 5.298,1.4527 0.57,0.9684 0.854,3.0477 0.854,6.2378 0,3.4748 -0.284,5.7823 -0.854,6.9216 -0.513,1.0823 -2.279,1.6231 -5.298,1.6231 h -4.785 l -1.709,74.2554 c -0.06,2.1077 -0.74,3.447 -2.051,4.0163 -1.31,0.5697 -4.358,0.8542 -9.143,0.8542 -4.785,0 -7.833,-0.2845 -9.143,-0.8542 -1.253,-0.5693 -1.909,-1.9086 -1.965,-4.0163 l -1.795,-74.2554 h -4.785 c -2.962,0 -4.728,-0.5408 -5.298,-1.6231 -0.569,-1.1393 -0.854,-3.4468 -0.854,-6.9216 0,-3.1901 0.285,-5.2694 0.854,-6.2378 0.57,-0.9685 2.336,-1.4527 5.298,-1.4527 h 4.443 l -0.598,-23.8404 c 0,-1.652 0.285,-2.9049 0.855,-3.7594 0.569,-0.9115 1.851,-1.5383 3.845,-1.88 1.994,-0.3988 5.041,-0.5984 9.143,-0.5984 z m 165.002,21.7041 c 6.039,0 11.821,0.9118 17.346,2.7347 5.526,1.7659 9.998,4.5569 13.416,8.3736 3.418,3.8167 4.984,8.7731 4.7,14.8684 l -1.282,31.5309 c -0.06,2.1077 -0.826,3.4461 -2.307,4.0158 -1.424,0.5697 -4.7,0.8547 -9.827,0.8547 h -33.239 l -0.599,18.4567 c -0.114,4.329 0.826,7.3489 2.82,9.0579 1.994,1.709 4.814,2.5637 8.46,2.5637 3.702,0 6.38,-0.7976 8.032,-2.3927 1.709,-1.5951 2.563,-4.4149 2.563,-8.4594 v -2.6489 c 0,-2.1647 0.684,-3.6173 2.051,-4.3579 1.424,-0.7975 4.671,-1.1963 9.741,-1.1963 5.07,0 8.261,0.3699 9.571,1.1105 1.367,0.7405 2.05,2.1932 2.05,4.3579 v 3.76 c 0,5.9815 -1.651,10.5672 -4.955,13.7573 -3.248,3.1901 -7.463,5.3831 -12.647,6.5794 -5.184,1.1963 -10.624,1.7947 -16.321,1.7947 -5.753,0 -11.251,-0.741 -16.492,-2.2221 -5.184,-1.5381 -9.484,-4.101 -12.902,-7.6899 -3.361,-3.5889 -5.156,-8.488 -5.384,-14.6973 l -1.965,-54.175 c -0.228,-6.0953 1.453,-11.0517 5.041,-14.8684 3.589,-3.8167 8.26,-6.6077 14.014,-8.3736 5.754,-1.8229 11.792,-2.7347 18.115,-2.7347 z m 0,13.3304 c -2.791,0 -5.155,0.6551 -7.092,1.9653 -1.88,1.3102 -2.876,4.3863 -2.99,9.2284 l -0.77,25.0367 h 20.935 l -0.854,-25.0367 c -0.171,-4.8421 -1.111,-7.9182 -2.82,-9.2284 -1.709,-1.3102 -3.845,-1.9653 -6.409,-1.9653 z m 135.217,106.0995 0.07,0.061 c -0.01,-0.01 -0.02,-0.018 -0.04,-0.027 -0.01,-0.011 -0.02,-0.023 -0.04,-0.033 z m -68.782,3.8638 c 25.293,0 43.507,4.5409 54.639,13.623 11.231,9.082 16.651,20.9473 16.26,35.5957 l -4.248,155.2738 c -0.195,8.4961 -2.588,16.2598 -7.178,23.2911 -4.492,7.0313 -11.572,12.6462 -21.24,16.8454 -9.668,4.1988 -22.412,6.2989 -38.233,6.2989 -15.722,0 -28.467,-2.1001 -38.232,-6.2989 -9.766,-4.1992 -16.894,-9.8141 -21.387,-16.8454 -4.492,-7.0313 -6.884,-14.795 -7.178,-23.2911 l -4.101,-155.2738 c -0.391,-14.6484 4.98,-26.5137 16.113,-35.5957 11.231,-9.0821 29.493,-13.623 54.785,-13.623 z m 1238.381,0 c 25.391,0 43.653,4.5409 54.785,13.623 11.133,9.082 16.504,20.9473 16.114,35.5957 l -1.465,58.5939 c -0.1,5.957 -1.855,9.7169 -5.273,11.2794 -3.418,1.4649 -9.669,2.1973 -18.751,2.1973 -9.18,0 -15.478,-0.7324 -18.896,-2.1973 -3.32,-1.5625 -5.078,-5.3224 -5.274,-11.2794 l -1.758,-63.1352 c -0.195,-8.5936 -1.953,-13.9647 -5.273,-16.1132 -3.223,-2.2461 -7.959,-3.3688 -14.209,-3.3688 -6.25,0 -11.035,1.1227 -14.356,3.3688 -3.222,2.1485 -4.932,7.5196 -5.127,16.1132 l -1.611,58.4476 c -0.1,7.3242 0.927,13.0375 3.076,17.139 2.149,4.1015 6.397,7.5193 12.745,10.2537 l 47.461,19.9217 c 6.934,2.8321 12.353,6.0549 16.259,9.6682 3.907,3.6133 6.592,8.301 8.057,14.0627 1.563,5.7617 2.1,13.3301 1.611,22.7051 l -0.293,8.2031 c -0.292,8.4961 -2.734,16.2107 -7.324,23.1443 -4.492,6.9336 -11.572,12.4514 -21.24,16.553 -9.668,4.1015 -22.412,6.1521 -38.233,6.1521 -15.722,0 -28.467,-2.1001 -38.232,-6.2989 -9.668,-4.1992 -16.748,-9.8141 -21.24,-16.8454 -4.492,-7.0313 -6.836,-14.795 -7.032,-23.2911 l -0.439,-16.1133 c -0.1,-5.9569 1.123,-9.6682 3.663,-11.1331 2.538,-1.5625 8.251,-2.3436 17.139,-2.3436 8.984,0 15.136,0.7811 18.456,2.3436 3.418,1.4649 5.029,5.1762 4.834,11.1331 l -0.586,17.4315 c -0.293,8.2027 1.367,13.8183 4.98,16.8455 3.711,2.9297 9.863,4.3946 18.457,4.3946 8.887,0 15.088,-1.4649 18.604,-4.3946 3.516,-3.0272 5.225,-8.6428 5.127,-16.8455 l -0.146,-9.5213 c -0.1,-6.8359 -0.879,-12.4515 -2.345,-16.846 -1.366,-4.3946 -5.223,-7.9592 -11.571,-10.6934 l -50.831,-21.6799 c -11.231,-4.8828 -18.848,-11.084 -22.852,-18.6035 -3.906,-7.6171 -6.054,-17.48 -6.445,-29.5894 l -1.465,-49.6585 c -0.391,-14.6484 4.981,-26.5137 16.114,-35.5957 11.23,-9.0821 29.492,-13.623 54.785,-13.623 z m -825.294,0.7323 c 10.644,0 18.457,0.3417 23.438,1.0253 4.98,0.6836 8.3,2.0022 9.96,3.9553 1.661,1.8555 2.784,4.6388 3.37,8.3493 l 38.818,223.682 c 0.879,5.1758 -0.147,8.3986 -3.076,9.6681 -2.832,1.1719 -8.106,1.7581 -15.821,1.7581 -6.152,0 -10.791,-0.1954 -13.915,-0.586 -3.028,-0.4883 -5.127,-1.5625 -6.299,-3.2226 -1.172,-1.6601 -2.051,-4.1996 -2.637,-7.6176 l -6.006,-35.0098 h -55.811 l -6.006,35.0098 c -0.586,3.418 -1.464,5.9575 -2.636,7.6176 -1.172,1.6601 -3.272,2.7343 -6.299,3.2226 -3.027,0.3906 -7.666,0.586 -13.916,0.586 -7.617,0 -12.89,-0.5862 -15.82,-1.7581 -2.93,-1.2695 -3.955,-4.4923 -3.076,-9.6681 l 38.818,-223.682 c 0.586,-3.7105 1.709,-6.4938 3.369,-8.3493 1.66,-1.9531 4.981,-3.2717 9.961,-3.9553 5.078,-0.6836 12.939,-1.0253 23.584,-1.0253 z m -641.163,0.879 c 7.422,0 12.695,0.4394 15.82,1.3183 3.223,0.7813 5.225,2.4901 6.006,5.1268 l 54.785,149.2679 h 1.172 l -6.885,-143.5551 c -0.195,-5.0781 1.124,-8.3495 3.956,-9.8144 2.929,-1.5625 9.57,-2.3435 19.922,-2.3435 7.714,0 13.427,0.3418 17.138,1.0253 3.809,0.5859 6.299,1.7576 7.471,3.5155 1.172,1.6601 1.709,4.1991 1.611,7.6171 l -6.445,221.0455 c -0.1,4.4921 -1.123,8.008 -3.076,10.5471 -1.856,2.5391 -6.641,3.8086 -14.356,3.8086 -3.711,0 -6.738,-0.2445 -9.082,-0.7328 -2.344,-0.4883 -4.004,-1.7087 -4.98,-3.6618 l -0.44,0.293 -59.326,-151.6119 h -1.611 l -1.172,145.7523 c -0.1,4.4922 -1.124,7.2757 -3.077,8.3499 -1.855,1.0742 -6.64,1.6113 -14.355,1.6113 -8.691,0 -14.16,-0.5371 -16.406,-1.6113 -2.149,-1.0742 -3.32,-3.8577 -3.516,-8.3499 l -6.298,-225.44 c -0.1,-5.0781 1.171,-8.3495 3.808,-9.8144 2.637,-1.5625 9.082,-2.3435 19.336,-2.3435 z m 324.903,0 h 107.227 c 5.175,0 8.203,0.9278 9.082,2.7833 0.977,1.8555 1.465,5.7126 1.465,11.5719 0,5.9571 -0.488,9.8637 -1.465,11.7192 -0.879,1.7578 -3.907,2.6365 -9.082,2.6365 h -27.393 l -5.86,209.6193 c -0.1,3.8086 -1.269,6.2989 -3.515,7.4708 -2.246,1.1719 -7.861,1.7581 -16.846,1.7581 -8.984,0 -14.55,-0.5371 -16.699,-1.6113 -2.148,-1.0742 -3.32,-3.8577 -3.516,-8.3499 l -6.006,-208.887 h -27.392 c -5.078,0 -8.105,-0.8787 -9.082,-2.6365 -0.879,-1.8555 -1.319,-5.7621 -1.319,-11.7192 0,-5.8593 0.44,-9.7164 1.319,-11.5719 0.977,-1.8555 4.004,-2.7833 9.082,-2.7833 z m 162.012,0 c 7.715,0 13.476,0.3418 17.285,1.0253 3.906,0.5859 6.445,1.7576 7.617,3.5155 1.27,1.6601 1.856,4.1991 1.758,7.6171 l -5.859,208.1548 h 38.086 c 5.078,0 8.056,0.9278 8.935,2.7833 0.977,1.8555 1.465,5.469 1.465,10.8401 0,5.2733 -0.488,8.8866 -1.465,10.8397 -0.879,1.8555 -3.857,2.7833 -8.935,2.7833 h -58.887 c -8.985,0 -14.6,-0.5371 -16.846,-1.6113 -2.148,-1.0742 -3.32,-3.8577 -3.516,-8.3499 l -6.298,-225.44 c -0.1,-3.418 0.439,-5.957 1.611,-7.6171 1.269,-1.7579 3.808,-2.9296 7.617,-3.5155 3.906,-0.6835 9.717,-1.0253 17.432,-1.0253 z m 275.831,0 c 7.421,0 12.694,0.4394 15.819,1.3183 3.223,0.7813 5.225,2.4901 6.006,5.1268 l 54.786,149.2679 h 1.172 l -6.885,-143.5551 c -0.196,-5.0781 1.123,-8.3495 3.955,-9.8144 2.93,-1.5625 9.57,-2.3435 19.922,-2.3435 7.715,0 13.427,0.3418 17.138,1.0253 3.809,0.5859 6.299,1.7576 7.471,3.5155 1.172,1.6601 1.709,4.1991 1.611,7.6171 l -6.445,221.0455 c -0.1,4.4921 -1.123,8.008 -3.076,10.5471 -1.856,2.5391 -6.64,3.8086 -14.355,3.8086 -3.711,0 -6.739,-0.2445 -9.082,-0.7328 0,0 -3.715,-0.3716 -5.42,-3.3688 l -59.327,-151.6119 h -1.611 l -1.172,145.7523 c -0.1,4.4922 -1.123,7.2757 -3.076,8.3499 -1.855,1.0742 -6.641,1.6113 -14.356,1.6113 -8.691,0 -14.16,-0.5371 -16.406,-1.6113 -2.148,-1.0742 -3.32,-3.8577 -3.515,-8.3499 l -6.299,-225.44 c -0.1,-5.0781 1.171,-8.3495 3.808,-9.8144 2.637,-1.5625 9.083,-2.3435 19.337,-2.3435 z m 183.838,0 h 43.212 c 26.27,0 45.117,4.4433 56.543,13.33 11.524,8.8866 17.041,21.826 16.553,38.8183 l -4.248,147.9496 c -0.391,14.6485 -6.054,26.2206 -16.992,34.7167 -10.84,8.496 -27.979,12.7445 -51.416,12.7445 h -47.168 c -7.227,-0.098 -11.768,-0.7324 -13.623,-1.9043 -1.758,-1.2695 -2.686,-3.9554 -2.784,-8.0569 l -6.298,-225.44 c -0.1,-3.418 0.439,-5.957 1.611,-7.6171 1.27,-1.7579 3.76,-2.9296 7.471,-3.5155 3.809,-0.6835 9.521,-1.0253 17.139,-1.0253 z m 168.896,0 h 16.113 c 7.129,0 14.747,0.049 22.852,0.1463 h 22.852 16.26 c 5.175,0 8.203,0.9278 9.082,2.7833 0.879,1.8555 1.318,5.713 1.318,11.5724 0,5.9571 -0.439,9.8631 -1.318,11.7186 -0.879,1.7574 -3.907,2.6366 -9.082,2.6366 h -41.602 l -2.637,89.9418 h 35.303 c 5.078,0 8.057,0.8787 8.936,2.6365 0.976,1.7578 1.465,5.5177 1.465,11.2794 0,5.6641 -0.489,9.4239 -1.465,11.2794 -0.879,1.7578 -3.858,2.6366 -8.936,2.6366 h -36.035 l -2.051,73.6818 h 41.601 c 5.078,0 8.057,0.9278 8.936,2.7833 0.977,1.8555 1.465,5.469 1.465,10.8401 0,5.2733 -0.488,8.8866 -1.465,10.8397 -0.879,1.8555 -3.858,2.7833 -8.936,2.7833 h -62.402 c -8.984,0 -14.6,-0.5371 -16.846,-1.6113 -2.148,-1.0742 -3.32,-3.8577 -3.515,-8.3499 l -6.299,-225.44 c -0.1,-5.0781 0.976,-8.3495 3.222,-9.8144 2.247,-1.5625 6.641,-2.3435 13.184,-2.3435 z m 141.944,0 h 3.662 33.398 c 13.379,0 25.44,1.6603 36.182,4.9806 10.742,3.2227 19.19,8.3492 25.342,15.3804 6.25,6.9336 9.179,16.0646 8.788,27.3927 l -1.904,69.5802 c -0.195,7.5191 -2.343,14.9416 -6.445,22.2659 -4.004,7.2265 -10.889,13.0861 -20.655,17.5782 l 27.393,69.5803 c 1.368,3.5156 2.393,6.3962 3.076,8.6423 0.782,2.1484 1.172,4.0041 1.172,5.5666 0,2.3437 -1.074,4.0525 -3.222,5.1268 -2.051,0.9765 -7.129,1.4651 -15.235,1.4651 -5.176,0 -9.13,-0.2932 -11.864,-0.879 -2.637,-0.6836 -4.688,-1.8555 -6.152,-3.5156 -1.466,-1.7578 -2.98,-4.1995 -4.542,-7.3246 l -30.616,-71.777 h -16.113 l -2.05,73.535 c -0.1,4.4922 -1.27,7.2757 -3.516,8.3499 -2.148,1.0742 -7.715,1.6113 -16.7,1.6113 -8.984,0 -14.599,-0.5371 -16.845,-1.6113 -2.148,-1.0742 -3.32,-3.8577 -3.516,-8.3499 l -6.298,-225.44 c -0.1,-3.418 0.439,-5.957 1.611,-7.6171 1.27,-1.7579 3.808,-2.9296 7.617,-3.5155 3.906,-0.6835 9.717,-1.0253 17.432,-1.0253 z m -1029.347,23.5841 c -6.25,0 -10.987,1.1227 -14.209,3.3688 -3.223,2.1485 -4.932,7.5196 -5.128,16.1132 l -4.248,161.1333 c -0.195,8.2027 1.514,13.8183 5.127,16.8455 3.711,2.9297 9.864,4.3946 18.458,4.3946 8.691,0 14.843,-1.4649 18.457,-4.3946 3.613,-3.0272 5.322,-8.6428 5.127,-16.8455 l -4.248,-161.1333 c -0.195,-8.5936 -1.905,-13.9647 -5.128,-16.1132 -3.222,-2.2461 -7.959,-3.3688 -14.208,-3.3688 z m 745.167,1.7575 -5.567,198.3404 h 24.024 c 9.277,0 15.625,-1.5626 19.042,-4.6876 3.516,-3.125 5.176,-8.7892 4.981,-16.9922 l -4.248,-156.885 c -0.195,-8.4961 -1.855,-13.9163 -4.98,-16.26 -3.125,-2.3437 -7.813,-3.5156 -14.063,-3.5156 z m 310.401,0 -3.223,114.8442 h 10.986 c 9.375,0 15.723,-1.5626 19.043,-4.6876 3.418,-3.125 5.029,-8.7891 4.834,-16.9922 l -2.05,-75.4399 c -0.196,-7.5194 -1.807,-12.3534 -4.835,-14.5019 -3.027,-2.1484 -9.228,-3.2226 -18.603,-3.2226 z m -643.214,18.0175 -22.412,129.9321 h 46.142 l -22.412,-129.9321 z" /><path
         id="path1"
         style="color:#000000;display:inline;opacity:1;fill:#ffffff;stroke-width:1.10011;-inkscape-stroke:none"
         d="m 11229.208,3296.1594 c -144.574,-1e-4 -283.255,57.4435 -385.485,159.673 -102.23,102.2293 -159.673,240.9106 -159.673,385.4849 0,41.0992 4.799,81.6801 13.792,121.1244 11.713,4.5728 16.973,15.4932 16.973,15.4932 l 8.22,25.1173 29.228,14.6141 14.651,-7.3257 c -19.618,-53.6545 -29.996,-110.7921 -29.996,-169.0233 0,-130.5732 51.86,-255.7734 144.189,-348.1027 92.33,-92.3292 217.528,-144.1877 348.101,-144.1876 130.573,2e-4 255.772,51.8603 348.101,144.1896 92.329,92.3291 144.187,217.5276 144.187,348.1007 0,102.3426 -31.983,201.3056 -90.217,283.8055 l 1.465,2.6034 53.79,10.0857 c 56.815,-87.6428 87.83,-190.4512 87.83,-296.4946 0,-144.5741 -57.443,-283.2556 -159.673,-385.4849 -102.229,-102.2295 -240.909,-159.6727 -385.483,-159.673 z" /></g></g></svg>
