<?xml version="1.0" encoding="UTF-8" standalone="no"?>
<!-- Created with Inkscape (http://www.inkscape.org/) -->

<svg
   width="991.09607mm"
   height="991.0957mm"
   viewBox="0 0 991.09607 991.0957"
   version="1.1"
   id="svg1"
   xml:space="preserve"
   inkscape:version="1.3.2 (091e20e, 2023-11-25, custom)"
   sodipodi:docname="LogoNotlanders.svg"
   xmlns:inkscape="http://www.inkscape.org/namespaces/inkscape"
   xmlns:sodipodi="http://sodipodi.sourceforge.net/DTD/sodipodi-0.dtd"
   xmlns="http://www.w3.org/2000/svg"
   xmlns:svg="http://www.w3.org/2000/svg"><sodipodi:namedview
     id="namedview1"
     pagecolor="#505050"
     bordercolor="#eeeeee"
     borderopacity="1"
     inkscape:showpageshadow="0"
     inkscape:pageopacity="0"
     inkscape:pagecheckerboard="0"
     inkscape:deskcolor="#505050"
     inkscape:document-units="px"
     showborder="false"
     showguides="true"
     showgrid="false"
     inkscape:zoom="0.16"
     inkscape:cx="42065.625"
     inkscape:cy="3921.875"
     inkscape:window-width="1920"
     inkscape:window-height="1057"
     inkscape:window-x="-8"
     inkscape:window-y="-8"
     inkscape:window-maximized="1"
     inkscape:current-layer="layer1"
     inkscape:export-bgcolor="#ffffff00"><inkscape:grid
       id="grid110"
       units="mm"
       originx="-10127.069"
       originy="-1210.8888"
       spacingx="0.26458333"
       spacingy="0.26458334"
       empcolor="#0099e5"
       empopacity="0.48627451"
       color="#0099e5"
       opacity="0.0745098"
       empspacing="100"
       dotted="false"
       gridanglex="30"
       gridanglez="30"
       visible="false" /></sodipodi:namedview><defs
     id="defs1"><inkscape:path-effect
       effect="fillet_chamfer"
       id="path-effect55"
       is_visible="true"
       lpeversion="1"
       nodesatellites_param="F,0,0,1,0,14.679856,0,1 @ F,0,0,1,0,12.107966,0,1 @ F,0,0,1,0,0,0,1 @ F,0,0,1,0,0,0,1"
       radius="0"
       unit="px"
       method="auto"
       mode="F"
       chamfer_steps="1"
       flexible="false"
       use_knot_distance="true"
       apply_no_radius="true"
       apply_with_radius="true"
       only_selected="false"
       hide_knots="false" /><inkscape:path-effect
       effect="fillet_chamfer"
       id="path-effect53"
       is_visible="true"
       lpeversion="1"
       nodesatellites_param="F,0,0,1,0,36.134748,0,1 @ F,0,0,1,0,0,0,1 @ F,0,0,1,0,0,0,1 @ F,0,0,1,0,23.95358,0,1 @ F,0,0,1,0,0,0,1 @ F,0,0,1,0,0,0,1 @ F,0,0,1,0,0,0,1 @ F,0,0,1,0,0,0,1 @ F,0,0,1,0,0,0,1 @ F,0,0,1,0,0,0,1 @ F,0,0,1,0,0,0,1 @ F,0,0,1,0,0,0,1 @ F,0,0,1,0,0,0,1 @ F,0,0,1,0,0,0,1 @ F,0,0,1,0,0,0,1 @ F,0,0,1,0,0,0,1 @ F,0,0,1,0,0,0,1 @ F,0,0,1,0,0,0,1 @ F,0,0,1,0,20.460218,0,1 @ F,0,0,1,0,25.280039,0,1 @ F,0,0,1,0,0,0,1 @ F,0,0,1,0,0,0,1 @ F,0,0,1,0,6.312409,0,1 @ F,0,0,1,0,3.6150648,0,1 @ F,0,0,1,0,49.569214,0,1 @ F,0,0,1,0,0,0,1 @ F,0,0,1,0,0,0,1 @ F,0,0,1,0,0,0,1 @ F,0,0,1,0,0,0,1 @ F,0,0,1,0,0,0,1 @ F,0,0,1,0,0,0,1"
       radius="0"
       unit="px"
       method="auto"
       mode="F"
       chamfer_steps="1"
       flexible="false"
       use_knot_distance="true"
       apply_no_radius="true"
       apply_with_radius="true"
       only_selected="false"
       hide_knots="false" /></defs><g
     inkscape:label="Layer 1"
     inkscape:groupmode="layer"
     id="layer1"
     transform="translate(-10127.07,-1210.8888)"><path
       id="path46"
       style="display:inline;fill:#000000;fill-opacity:1;stroke:none;stroke-width:1.12184"
       d="m 209.96038,-162.19241 c -84.89064,21.20048 -166.246915,42.87119 -252.153154,64.347736 V 143.94987 c 37.0259711,2.32505 69.796899,4.55217 105.295906,6.76671 13.203332,0.82367 24.268399,-9.25714 24.71222,-22.47889 L 92.294108,-5.1877971 c 0.191583,-4.2804787 2.224392,-8.0594079 5.325772,-10.2918779 0.62028,-0.446495 1.28322,-0.831276 1.98283,-1.145667 0.69961,-0.314391 1.43586,-0.558427 2.20245,-0.723987 0.76658,-0.165558 1.56365,-0.252697 2.38486,-0.252697 h 13.86376 0.47335 7.51376 c 0.8212,0 1.61827,0.08714 2.38486,0.252697 0.76659,0.16556 1.50284,0.409596 2.20245,0.723987 0.69961,0.314391 1.36255,0.699172 1.98283,1.145667 1.24059,0.892977 2.31036,2.033292 3.15949,3.354317 0.84914,1.321025 1.47775,2.8227163 1.83658,4.4379719 0.17942,0.807631 0.29138,1.6434933 0.3297,2.499589 l 4.69726,139.9389271 c 0.37908,11.2935 9.83214,20.96592 21.11237,21.63172 53.68744,3.16882 107.35098,6.74364 161.06961,9.28637 13.94366,0.66002 24.62814,-10.18762 23.81595,-24.12575 -4.87877,-83.724473 -10.88111,-167.386517 -16.46415,-251.0665 -0.38073,-6.84504 3.84354,-12.67269 10.38027,-13.33048 l 1.20902,-0.0342 a 6.4936596,6.4936596 134.18912 0 0 6.30988,-6.49106 v -0.37969 c 0,-1.99654 -1.43778,-4.36099 -3.26222,-5.17065 -21.68284,-9.62253 -40.6079,6.14403 -41.54696,33.50424 -2.14497,62.494959 -4.28559,124.990402 -6.36445,187.487347 -0.30654,6.848745 -5.32621,12.41423 -11.89591,12.41423 h -7.51375 -0.47336 -13.33458 c -6.56975,0 -11.58938,-5.565485 -11.89592,-12.41423 -2.47073,-73.606914 -4.97498,-147.213447 -7.50103,-220.818687 -0.68448,-19.94493 -16.95647,-32.27161 -36.31845,-27.43617 z"
       sodipodi:nodetypes="cccccssssccssscsscccccccccsccscc"
       inkscape:path-effect="#path-effect53"
       inkscape:original-d="m 245.03776,-170.86967 c -97.78211,23.94178 -189.565949,48.60887 -287.230534,73.024996 V 143.94987 c 45.1746148,2.83675 84.015202,5.52771 129.204517,8.22792 L 92.294108,-5.1877971 c 0.191583,-4.2804787 2.224392,-8.0594079 5.325772,-10.2918779 0.62028,-0.446495 1.28322,-0.831276 1.98283,-1.145667 0.69961,-0.314391 1.43586,-0.558427 2.20245,-0.723987 0.76658,-0.165558 1.56365,-0.252697 2.38486,-0.252697 h 13.86376 0.47335 7.51376 c 0.8212,0 1.61827,0.08714 2.38486,0.252697 0.76659,0.16556 1.50284,0.409596 2.20245,0.723987 0.69961,0.314391 1.36255,0.699172 1.98283,1.145667 1.24059,0.892977 2.31036,2.033292 3.15949,3.354317 0.84914,1.321025 1.47775,2.8227163 1.83658,4.4379719 0.17942,0.807631 0.29138,1.6434933 0.3297,2.499589 l 5.38365,160.3876271 c 68.91573,3.90526 137.77557,8.77971 206.74656,11.58291 -5.10335,-92.151607 -11.75516,-184.217826 -17.89917,-276.30577 -0.38073,-6.84504 3.84354,-12.67269 10.38027,-13.33048 l 7.5189,-0.21288 v -10.30716 c -4.03619,-2.23188 -23.2991,-9.79218 -43.109,-17.5914 -2.70959,79.008105 -5.43646,158.0165513 -8.06463,237.027397 -0.30654,6.848745 -5.32621,12.41423 -11.89591,12.41423 h -7.51375 -0.47336 -13.33458 c -6.56975,0 -11.58938,-5.565485 -11.89592,-12.41423 -2.87481,-85.64503296 -5.79499,-171.28955 -8.7421,-256.932117 z"
       transform="matrix(0.92637174,-0.1456484,0.14283404,0.94462468,10539.53,1577.1619)"
       inkscape:export-filename="MarkDraft.svg"
       inkscape:export-xdpi="96"
       inkscape:export-ydpi="96" /><path
       style="display:inline;fill:#000000;fill-opacity:1;stroke:none;stroke-width:1.12184"
       d="m -45.326007,-124.25788 -54.808733,13.63366 a 13.975554,13.975554 125.12661 0 0 -10.53094,14.969231 l 53.908421,532.754409 h 25.676985 l 0,-550.22106 a 11.475599,11.475599 38.0156 0 0 -14.245733,-11.13624 z"
       id="path47"
       inkscape:path-effect="#path-effect55"
       inkscape:original-d="m -31.080274,-127.8015 -80.804366,20.10006 55.127381,544.80086 h 25.676985 z"
       sodipodi:nodetypes="ccccc"
       transform="matrix(0.92637174,-0.1456484,0.14283404,0.94462468,10539.53,1577.1619)" /><path
       id="path50"
       style="display:inline;fill:#000000;fill-opacity:1;stroke-width:2"
       d="m 11083.632,1846.0772 a 471.51968,471.51968 0 0 0 1.156,-5.316 l -0.01,-2.9987 a 64.763177,64.763177 0 0 0 0.03,0 64.763177,64.763177 0 0 0 0.647,-0.064 471.51968,471.51968 0 0 0 8.684,-84.9623 471.51968,471.51968 0 0 0 -3.139,-43.8903 64.763177,64.763177 0 0 0 -6.192,-0.6098 64.763177,64.763177 0 0 0 -55.686,31.9536 64.763177,64.763177 0 0 0 -55.685,-31.9536 64.763177,64.763177 0 0 0 -64.764,64.7629 64.763177,64.763177 0 0 0 2.459,17.4863 30.50676,30.50676 0 0 0 -17.351,-5.4244 30.50676,30.50676 0 0 0 -30.507,30.5066 h -39.811 a 15.25338,15.25338 0 0 0 -15.253,15.2533 15.25338,15.25338 0 0 0 15.253,15.2539 z m -159.356,-30.9526 a 64.763177,64.763177 0 0 0 0.373,0.4454 h -0.362 a 30.50676,30.50676 0 0 0 -0.01,-0.4454 z" /><path
       id="path51"
       style="display:inline;fill:#000000;fill-opacity:1;stroke-width:2"
       d="m 10163.439,1611.2869 a 471.51968,471.51968 0 0 0 -6.636,30.5066 h 164.574 50.536 a 15.25338,15.25338 0 0 0 15.254,-15.2533 15.25338,15.25338 0 0 0 -15.254,-15.2533 h -20.029 a 30.50676,30.50676 0 0 0 -30.507,-30.5067 30.50676,30.50676 0 0 0 -15.229,4.1527 30.50676,30.50676 0 0 0 0.01,-0.083 30.50676,30.50676 0 0 0 -30.507,-30.5066 30.50676,30.50676 0 0 0 -8.6,1.2376 36.648399,36.648399 0 0 0 5.125,-18.5446 36.648399,36.648399 0 0 0 -36.652,-36.6484 36.648399,36.648399 0 0 0 -35.861,29.6643 l -0.104,-0.062 -29.398,81.2974 z m 127.437,-0.083 a 30.50676,30.50676 0 0 0 -0.01,0.083 h -0.146 a 30.50676,30.50676 0 0 0 0.152,-0.083 z" /><path
       id="path122"
       style="display:inline;opacity:1;fill:#000000;fill-opacity:1;stroke-width:1.59128"
       d="m 5162.3292,254.74254 c 27.7253,54.18521 63.3407,62.73361 109.4282,102.49131 l 0.088,-0.0238 c 0.4462,0.38158 0.9121,0.73588 1.3633,1.11053 14.4042,12.19721 29.5279,23.51853 45.2892,33.90284 3.1267,2.06306 6.2836,4.07264 9.4557,6.06009 16.2772,10.22608 33.1646,19.44721 50.5675,27.61175 2.5951,1.19558 5.2109,2.34301 7.8212,3.50677 0.044,0.0196 0.088,0.0378 0.1323,0.0574 17.722,7.88618 35.9138,14.67127 54.4716,20.31659 1.2938,0.38949 2.5744,0.81642 3.8706,1.19941 1.1342,0.33487 2.2683,0.66819 3.3988,1.01285 19.5815,5.60896 39.5059,9.94319 59.648,12.97544 2.0799,0.31537 4.1707,0.57906 6.2559,0.86816 21.1153,2.9584 63.7285,4.55786 63.7285,4.55786 0,0 42.5392,-1.59926 63.6183,-4.55011 2.1532,-0.29825 4.3121,-0.56983 6.4596,-0.89606 20.0427,-3.02385 39.8695,-7.33692 59.3571,-12.91239 1.1783,-0.359 2.3603,-0.70672 3.5424,-1.05575 1.4014,-0.41407 2.7863,-0.87474 4.1848,-1.29657 18.3356,-5.59247 36.313,-12.29787 53.8323,-20.07887 0.1518,-0.0676 0.3056,-0.13025 0.4574,-0.19792 2.7079,-1.20726 5.4239,-2.392 8.1137,-3.63751 17.1753,-8.0741 33.8475,-17.17779 49.9256,-27.26138 0.058,-0.0364 0.117,-0.0716 0.1752,-0.10801 3.3551,-2.10114 6.696,-4.22229 9.9999,-6.40891 15.4086,-10.18051 30.2058,-21.25748 44.3151,-33.17368 0.6536,-0.53717 1.3234,-1.05184 1.9674,-1.60249 l 0.1276,0.0341 c 46.0899,-39.75642 86.385,-48.30415 114.1127,-102.48925 l -137.8082,-36.92539 c -13.5123,-3.62081 -27.4015,4.39809 -31.0219,17.91053 l -14.2797,53.29494 c -1.5907,5.93653 -7.0395,9.92289 -12.978,10.09706 -26.6139,-5.8258 -54.212,-10.58913 -82.5273,-14.25236 -4.6662,-1.91375 -7.2311,-6.7493 -5.8554,-12.02149 l 17.4867,-67.01968 c 3.2268,-12.36654 -6.1051,-24.44585 -18.8856,-24.44605 l -97.2015,-24.21965 a 143.96315,143.96315 -180 0 0 -69.614,0 l -97.2015,24.21965 c -12.7806,2.1e-4 -22.1124,12.07951 -18.8857,24.44605 l 17.4868,67.01968 c 1.3757,5.27219 -1.1892,10.10774 -5.8554,12.02149 -28.3153,3.66323 -55.9134,8.42656 -82.5273,14.25236 -5.9385,-0.17417 -11.3873,-4.16053 -12.978,-10.09706 l -14.2798,-53.29494 c -3.6204,-13.51239 -17.5095,-21.53128 -31.0218,-17.91053 z"
       sodipodi:nodetypes="cccccccsccscccsscccscsscscccccccssccsscccssccsscc"
       transform="translate(5042.4321,1712.7921)" /><path
       style="color:#000000;display:inline;fill:#000000;-inkscape-stroke:none"
       d="m 10622.619,1210.8887 c -131.418,-10e-5 -257.479,52.2159 -350.406,145.1426 -92.927,92.9266 -145.143,218.988 -145.143,350.4062 0,131.4182 52.216,257.4776 145.143,350.4043 92.927,92.9267 218.988,145.1427 350.406,145.1426 131.418,-2e-4 257.478,-52.216 350.404,-145.1426 92.927,-92.9266 145.143,-218.9863 145.143,-350.4043 0,-131.418 -52.216,-257.4796 -145.143,-350.4062 -92.926,-92.9267 -218.986,-145.1424 -350.404,-145.1426 z m 0,48.0566 c 118.691,2e-4 232.497,47.141 316.424,131.0684 83.927,83.9273 131.066,197.7327 131.066,316.4238 0,118.6911 -47.139,232.4965 -131.066,316.4238 -83.927,83.9273 -197.733,131.0663 -316.424,131.0664 -118.691,10e-5 -232.496,-47.139 -316.424,-131.0664 -83.927,-83.9273 -131.068,-197.7326 -131.068,-316.4238 0,-118.6912 47.141,-232.4984 131.068,-316.4258 83.928,-83.9273 197.733,-131.0665 316.424,-131.0664 z"
       id="path121" /></g></svg>
